<svg width="24" height="24" viewBox="0 0 24 24" fill="none" xmlns="http://www.w3.org/2000/svg">
<path fill-rule="evenodd" clip-rule="evenodd" d="M5.24256 4.57454H11.9703C12.3837 4.57454 12.7178 4.24041 12.7178 3.82703C12.7178 3.41366 12.3837 3.07953 11.9703 3.07953H5.24256C4.00616 3.07953 3 4.08568 3 5.32209V18.7775C3 20.0139 4.00616 21.0201 5.24256 21.0201H11.9703C12.3837 21.0201 12.7178 20.6859 12.7178 20.2725C12.7178 19.8592 12.3837 19.525 11.9703 19.525H5.24256C4.82996 19.525 4.49505 19.1902 4.49505 18.7775V5.32205C4.49505 4.90945 4.82992 4.57454 5.24256 4.57454ZM16.232 17.0673L20.7769 12.5821C20.9197 12.4408 20.9997 12.2502 20.9997 12.0499C20.9997 11.8496 20.919 11.6582 20.7769 11.5177L16.232 7.03255C16.0869 6.88901 15.8971 6.81725 15.7072 6.81725C15.5143 6.81725 15.3215 6.89199 15.175 7.04C14.8857 7.33378 14.8879 7.80696 15.1825 8.097L18.4304 11.3024H9.727C9.31362 11.3024 8.97949 11.6365 8.97949 12.0499C8.97949 12.4633 9.31362 12.7974 9.727 12.7974H18.4304L15.1825 16.0028C14.8879 16.2928 14.8849 16.766 15.175 17.0598C15.465 17.3536 15.9389 17.3573 16.232 17.0673Z" fill="white"/>
<path d="M20.7769 12.5821L20.8707 12.6769L20.8706 12.677L20.7769 12.5821ZM16.232 17.0673L16.1382 16.9725L16.1383 16.9724L16.232 17.0673ZM20.7769 11.5177L20.8706 11.4228L20.8707 11.4229L20.7769 11.5177ZM16.232 7.03255L16.1383 7.12746L16.1382 7.12731L16.232 7.03255ZM15.175 7.04L15.08 6.94645L15.0802 6.94621L15.175 7.04ZM15.1825 8.097L15.276 8.002L15.2761 8.0021L15.1825 8.097ZM18.4304 11.3024L18.5241 11.2075L18.7554 11.4357H18.4304V11.3024ZM18.4304 12.7974V12.6641H18.7554L18.5241 12.8923L18.4304 12.7974ZM15.1825 16.0028L15.2761 16.0977L15.276 16.0978L15.1825 16.0028ZM15.175 17.0598L15.2698 16.9661L15.2698 16.9661L15.175 17.0598ZM11.9703 4.70788H5.24256V4.44121H11.9703V4.70788ZM12.8512 3.82703C12.8512 4.31405 12.4573 4.70788 11.9703 4.70788V4.44121C12.31 4.44121 12.5845 4.16677 12.5845 3.82703H12.8512ZM11.9703 2.94619C12.4573 2.94619 12.8512 3.34002 12.8512 3.82703H12.5845C12.5845 3.4873 12.31 3.21286 11.9703 3.21286V2.94619ZM5.24256 2.94619H11.9703V3.21286H5.24256V2.94619ZM2.86667 5.32209C2.86667 4.01205 3.93252 2.94619 5.24256 2.94619V3.21286C4.0798 3.21286 3.13333 4.15932 3.13333 5.32209H2.86667ZM2.86667 18.7775V5.32209H3.13333V18.7775H2.86667ZM5.24256 21.1534C3.93252 21.1534 2.86667 20.0876 2.86667 18.7775H3.13333C3.13333 19.9403 4.0798 20.8868 5.24256 20.8868V21.1534ZM11.9703 21.1534H5.24256V20.8868H11.9703V21.1534ZM12.8512 20.2725C12.8512 20.7595 12.4573 21.1534 11.9703 21.1534V20.8868C12.31 20.8868 12.5845 20.6123 12.5845 20.2725H12.8512ZM11.9703 19.3917C12.4573 19.3917 12.8512 19.7855 12.8512 20.2725H12.5845C12.5845 19.9328 12.31 19.6584 11.9703 19.6584V19.3917ZM5.24256 19.3917H11.9703V19.6584H5.24256V19.3917ZM4.62838 18.7775C4.62838 19.1165 4.90359 19.3917 5.24256 19.3917V19.6584C4.75632 19.6584 4.36172 19.2638 4.36172 18.7775H4.62838ZM4.62838 5.32205V18.7775H4.36172V5.32205H4.62838ZM5.24256 4.70788C4.90356 4.70788 4.62838 4.98308 4.62838 5.32205H4.36172C4.36172 4.83581 4.75628 4.44121 5.24256 4.44121V4.70788ZM20.8706 12.677L16.3256 17.1622L16.1383 16.9724L20.6833 12.4872L20.8706 12.677ZM21.133 12.0499C21.133 12.2861 21.0386 12.5107 20.8707 12.6769L20.6831 12.4873C20.8008 12.3709 20.8663 12.2143 20.8663 12.0499H21.133ZM20.8707 11.4229C21.0378 11.5883 21.133 11.8137 21.133 12.0499H20.8663C20.8663 11.8856 20.8001 11.7282 20.6831 11.6125L20.8707 11.4229ZM16.3256 6.93765L20.8706 11.4228L20.6833 11.6126L16.1383 7.12745L16.3256 6.93765ZM15.7072 6.68392C15.9306 6.68392 16.1547 6.76844 16.3258 6.93779L16.1382 7.12731C16.0192 7.00957 15.8635 6.95058 15.7072 6.95058V6.68392ZM15.0802 6.94621C15.2525 6.77209 15.4799 6.68392 15.7072 6.68392V6.95058C15.5488 6.95058 15.3904 7.0119 15.2697 7.1338L15.0802 6.94621ZM15.0889 8.192C14.7417 7.85005 14.7393 7.29246 15.08 6.94645L15.27 7.13356C15.0321 7.3751 15.0342 7.76386 15.276 8.002L15.0889 8.192ZM18.3368 11.3973L15.0888 8.1919L15.2761 8.0021L18.5241 11.2075L18.3368 11.3973ZM9.727 11.169H18.4304V11.4357H9.727V11.169ZM8.84616 12.0499C8.84616 11.5629 9.23998 11.169 9.727 11.169V11.4357C9.38727 11.4357 9.11283 11.7102 9.11283 12.0499H8.84616ZM9.727 12.9308C9.23999 12.9308 8.84616 12.5369 8.84616 12.0499H9.11283C9.11283 12.3897 9.38726 12.6641 9.727 12.6641V12.9308ZM18.4304 12.9308H9.727V12.6641H18.4304V12.9308ZM15.0888 15.9079L18.3368 12.7025L18.5241 12.8923L15.2761 16.0977L15.0888 15.9079ZM15.0801 17.1535C14.7383 16.8073 14.7418 16.2496 15.0889 15.9078L15.276 16.0978C15.034 16.3361 15.0315 16.7248 15.2698 16.9661L15.0801 17.1535ZM16.3258 17.162C15.9801 17.5042 15.4216 17.4994 15.0801 17.1535L15.2698 16.9661C15.5084 17.2077 15.8978 17.2104 16.1382 16.9725L16.3258 17.162Z" fill="white"/>
</svg>
